<svg width="500" height="500" viewBox="0 0 500 500" xmlns="http://www.w3.org/2000/svg">
<defs>
  <radialGradient id="volGrad" cx="36%" cy="30%" r="70%">
    <stop offset="0%"   stop-color="#fff4b0"/>
    <stop offset="15%"  stop-color="#ffca50"/>
    <stop offset="38%"  stop-color="#e07010"/>
    <stop offset="68%"  stop-color="#922000"/>
    <stop offset="100%" stop-color="#320800"/>
  </radialGradient>
  <radialGradient id="limb" cx="50%" cy="50%" r="50%">
    <stop offset="52%"  stop-color="#000" stop-opacity="0"/>
    <stop offset="100%" stop-color="#000" stop-opacity="0.78"/>
  </radialGradient>
  <radialGradient id="spec" cx="33%" cy="27%" r="28%">
    <stop offset="0%"   stop-color="#fff8d8" stop-opacity="0.82"/>
    <stop offset="50%"  stop-color="#ffd070" stop-opacity="0.2"/>
    <stop offset="100%" stop-color="#ffaa30" stop-opacity="0"/>
  </radialGradient>
  <clipPath id="sph"><circle cx="250" cy="250" r="218"/></clipPath>
  <style>
    .la { animation: rot  90s linear infinite;         transform-origin: 250px 250px; }
    .lb { animation: rot  60s linear infinite reverse; transform-origin: 250px 250px; }
    .lc { animation: rot  75s linear infinite;         transform-origin: 250px 250px; }
    .ld { animation: rot 120s linear infinite reverse; transform-origin: 250px 250px; }
    @keyframes rot {
      from { transform: rotate(0deg); }
      to   { transform: rotate(360deg); }
    }
  </style>
</defs>

<circle cx="250" cy="250" r="218" fill="url(#volGrad)"/>

<g clip-path="url(#sph)">

  <g class="la">
    <polygon fill="none" stroke="#ff7010" stroke-width="1.4" opacity="0.55" points="
      250,32  270,82  295,48  325,94
      362,68  370,120 412,108 398,158
      438,164 408,206 444,228 404,254
      438,276 406,300 436,330 394,342
      414,378 372,376 362,412 326,398
      296,430 270,408 250,448 230,408
      204,430 174,398 138,412 128,376
       86,378 106,342  64,330  94,300
       62,276 100,254  62,228  96,206
       62,164 102,158  88,108 130,120
      138,68  175,94  205,48  230,82"/>
    <polygon fill="none" stroke="#e06010" stroke-width="1" opacity="0.45" points="
      250,78  282,86  310,106 328,136
      332,170 318,202 292,220 260,226
      228,220 202,200 190,168 196,136
      216,108 242,90"/>
    <polygon fill="#cc5500" opacity="0.28" points="250,32  270,82  250,78"/>
    <polygon fill="#ff9030" opacity="0.22" points="270,82  295,48  282,86"/>
    <polygon fill="#cc5500" opacity="0.28" points="295,48  325,94  310,106"/>
    <polygon fill="#ff9030" opacity="0.22" points="325,94  362,68  328,136"/>
    <polygon fill="#cc5500" opacity="0.28" points="362,68  370,120 332,170"/>
    <polygon fill="#ff9030" opacity="0.22" points="370,120 412,108 318,202"/>
    <polygon fill="#cc5500" opacity="0.28" points="412,108 398,158 292,220"/>
    <polygon fill="#ff9030" opacity="0.22" points="398,158 438,164 260,226"/>
    <polygon fill="#cc5500" opacity="0.28" points="438,164 408,206 228,220"/>
    <polygon fill="#ff9030" opacity="0.22" points="408,206 444,228 202,200"/>
    <polygon fill="#cc5500" opacity="0.28" points="444,228 404,254 190,168"/>
    <polygon fill="#ff9030" opacity="0.22" points="404,254 438,276 196,136"/>
    <polygon fill="#cc5500" opacity="0.28" points="438,276 406,300 216,108"/>
    <polygon fill="#ff9030" opacity="0.22" points="406,300 436,330 242,90"/>
    <polygon fill="#cc5500" opacity="0.28" points="436,330 394,342 250,78"/>
    <polygon fill="#ff9030" opacity="0.22" points="394,342 414,378 270,82"/>
    <polygon fill="#cc5500" opacity="0.28" points="414,378 372,376 282,86"/>
    <polygon fill="#ff9030" opacity="0.22" points="372,376 362,412 310,106"/>
    <polygon fill="#cc5500" opacity="0.28" points="362,412 326,398 328,136"/>
    <polygon fill="#ff9030" opacity="0.22" points="326,398 296,430 332,170"/>
    <polygon fill="#cc5500" opacity="0.28" points="296,430 270,408 318,202"/>
    <polygon fill="#ff9030" opacity="0.22" points="270,408 250,448 292,220"/>
    <polygon fill="#cc5500" opacity="0.28" points="250,448 230,408 260,226"/>
    <polygon fill="#ff9030" opacity="0.22" points="230,408 204,430 228,220"/>
    <polygon fill="#cc5500" opacity="0.28" points="204,430 174,398 202,200"/>
    <polygon fill="#ff9030" opacity="0.22" points="174,398 138,412 190,168"/>
    <polygon fill="#cc5500" opacity="0.28" points="138,412 128,376 196,136"/>
    <polygon fill="#ff9030" opacity="0.22" points="128,376  86,378 216,108"/>
    <polygon fill="#cc5500" opacity="0.28" points=" 86,378 106,342 242,90"/>
    <polygon fill="#ff9030" opacity="0.22" points="106,342  64,330 250,78"/>
    <polygon fill="#cc5500" opacity="0.28" points=" 64,330  94,300 270,82"/>
    <polygon fill="#ff9030" opacity="0.22" points=" 94,300  62,276 282,86"/>
    <polygon fill="#cc5500" opacity="0.28" points=" 62,276 100,254 310,106"/>
    <polygon fill="#ff9030" opacity="0.22" points="100,254  62,228 328,136"/>
    <polygon fill="#cc5500" opacity="0.28" points=" 62,228  96,206 332,170"/>
    <polygon fill="#ff9030" opacity="0.22" points=" 96,206  62,164 318,202"/>
    <polygon fill="#cc5500" opacity="0.28" points=" 62,164 102,158 292,220"/>
    <polygon fill="#ff9030" opacity="0.22" points="102,158  88,108 260,226"/>
    <polygon fill="#cc5500" opacity="0.28" points=" 88,108 130,120 228,220"/>
    <polygon fill="#ff9030" opacity="0.22" points="130,120 138,68  202,200"/>
    <polygon fill="#cc5500" opacity="0.28" points="138,68  175,94  190,168"/>
    <polygon fill="#ff9030" opacity="0.22" points="175,94  205,48  196,136"/>
    <polygon fill="#cc5500" opacity="0.28" points="205,48  230,82  216,108"/>
    <polygon fill="#ff9030" opacity="0.22" points="230,82  250,32  242,90"/>
  </g>

  <g class="lb">
    <polygon fill="none" stroke="#d06818" stroke-width="1.1" opacity="0.45" points="
      250,85  306,90  356,109 392,144
      407,191 400,240 380,283 347,315
      305,332 258,332 213,318 175,291
      152,250 155,205 172,163 204,132 248,114"/>
  </g>

  <g class="lc">
    <polygon fill="none" stroke="#e07820" stroke-width="1" opacity="0.45" points="
      250,135 294,141 331,161 354,195
      360,235 347,273 320,300 283,312
      243,309 206,295 180,267 168,231
      172,193 191,160 222,139 250,133"/>
    <polygon fill="none" stroke="#f09030" stroke-width="0.9" opacity="0.4" points="
      250,180 278,184 302,198 315,220
      316,246 306,269 286,283 260,288
      234,285 212,271 200,249 200,223
      211,199 232,183 250,179"/>
    <polygon fill="#ffaa30" opacity="0.3"  points="250,148 273,180 306,158 308,194 342,186 330,220 364,228 340,254 358,278 328,282 330,314 304,306 288,334 266,316 250,340 234,316 212,334 196,306 170,314 172,282 142,278 160,254 136,228 170,220 158,186 192,194 194,158 227,180"/>
    <polygon fill="#882000" opacity="0.32" points="273,180 306,158 308,194"/>
    <polygon fill="#ffaa30" opacity="0.3"  points="306,158 308,194 342,186"/>
    <polygon fill="#882000" opacity="0.32" points="308,194 342,186 330,220"/>
    <polygon fill="#ffaa30" opacity="0.3"  points="342,186 330,220 364,228"/>
    <polygon fill="#882000" opacity="0.32" points="330,220 364,228 340,254"/>
    <polygon fill="#ffaa30" opacity="0.3"  points="364,228 340,254 358,278"/>
    <polygon fill="#882000" opacity="0.32" points="340,254 358,278 328,282"/>
    <polygon fill="#ffaa30" opacity="0.3"  points="358,278 328,282 330,314"/>
    <polygon fill="#882000" opacity="0.32" points="328,282 330,314 304,306"/>
    <polygon fill="#ffaa30" opacity="0.3"  points="330,314 304,306 288,334"/>
    <polygon fill="#882000" opacity="0.32" points="304,306 288,334 266,316"/>
    <polygon fill="#ffaa30" opacity="0.3"  points="288,334 266,316 250,340"/>
    <polygon fill="#882000" opacity="0.32" points="266,316 250,340 234,316"/>
    <polygon fill="#ffaa30" opacity="0.3"  points="250,340 234,316 212,334"/>
    <polygon fill="#882000" opacity="0.32" points="234,316 212,334 196,306"/>
    <polygon fill="#ffaa30" opacity="0.3"  points="212,334 196,306 170,314"/>
    <polygon fill="#882000" opacity="0.32" points="196,306 170,314 172,282"/>
    <polygon fill="#ffaa30" opacity="0.3"  points="170,314 172,282 142,278"/>
    <polygon fill="#882000" opacity="0.32" points="172,282 142,278 160,254"/>
    <polygon fill="#ffaa30" opacity="0.3"  points="142,278 160,254 136,228"/>
    <polygon fill="#882000" opacity="0.32" points="160,254 136,228 170,220"/>
    <polygon fill="#ffaa30" opacity="0.3"  points="136,228 170,220 158,186"/>
    <polygon fill="#882000" opacity="0.32" points="170,220 158,186 192,194"/>
    <polygon fill="#ffaa30" opacity="0.3"  points="158,186 192,194 194,158"/>
    <polygon fill="#882000" opacity="0.32" points="192,194 194,158 227,180"/>
    <polygon fill="#ffaa30" opacity="0.3"  points="194,158 227,180 250,148"/>
    <polygon fill="#882000" opacity="0.32" points="227,180 250,148 273,180"/>
    <polygon fill="none" stroke="#f09028" stroke-width="1.2" opacity="0.65" points="
      250,148 273,180 306,158 308,194 342,186 330,220 364,228 340,254 358,278 328,282 330,314 304,306 288,334 266,316 250,340 234,316 212,334 196,306 170,314 172,282 142,278 160,254 136,228 170,220 158,186 192,194 194,158 227,180"/>
  </g>

  <g class="ld">
    <polygon fill="none" stroke="#ffc040" stroke-width="1.3" opacity="0.7" points="
      250,192 264,210 278,196 284,214
      298,210 290,228 308,234 294,246
      302,260 284,260 282,276 268,268
      260,282 250,272 240,282 232,268
      218,276 216,260 198,260 206,246
      192,234 210,228 202,210 216,214
      222,196 236,210"/>
    <polygon fill="#ffcc50" opacity="0.35" points="
      250,192 264,210 278,196 284,214 298,210 290,228 308,234
      294,246 302,260 284,260 282,276 268,268 260,282 250,272
      240,282 232,268 218,276 216,260 198,260 206,246 192,234
      210,228 202,210 216,214 222,196 236,210"/>
  </g>

</g>

<circle cx="250" cy="250" r="218" fill="url(#limb)"/>
<circle cx="250" cy="250" r="218" fill="url(#spec)"/>
<circle cx="250" cy="250" r="218" fill="none" stroke="#ff8822" stroke-width="3"  opacity="0.28"/>
<circle cx="250" cy="250" r="218" fill="none" stroke="#ffdd88" stroke-width="1"  opacity="0.18"/>
</svg>
